<svg width="54" height="54" viewBox="0 0 54 54" fill="none" xmlns="http://www.w3.org/2000/svg">
<g clip-path="url(#clip0_51_104)">
<path d="M40.3359 0.00686646L41.9799 6.42717C43.9861 11.1418 48.7914 12.9988 53.6582 13.0744C53.8223 14.1095 53.4087 13.6281 52.8277 13.7691C50.3191 14.3846 47.978 14.3468 45.6847 15.8805C38.9449 20.3854 39.109 34.5293 46.3648 38.4668L54 40.5817C45.4113 40.9599 41.1254 45.4751 40.5034 54C39.6422 51.6994 39.7823 49.134 38.6852 46.885C34.8984 39.1202 20.6054 38.8382 15.9197 45.764C14.4672 47.9098 14.392 50.5405 13.8486 52.9683C13.7632 53.3466 13.8486 54.0791 13.3394 53.9931C12.9019 49.5948 12.0406 45.114 7.97696 42.7103C5.4581 41.2178 2.7376 41.2247 0.00341797 40.4132C3.33228 39.7357 6.71924 39.4709 9.39874 37.1394C14.7235 32.5038 14.4228 20.1859 8.53063 16.0215C6.18949 14.3674 3.77316 14.4121 1.17911 13.7725C0.598102 13.6315 0.184557 14.1095 0.348608 13.0779C8.73911 13.0985 12.8267 8.04342 13.5068 0.00686646C14.3681 2.30745 14.228 4.87282 15.3251 7.12181C18.6471 13.9376 30.3323 14.7526 35.8622 10.4678C39.2184 7.86804 39.6627 3.95465 40.3394 0.0103053L40.3359 0.00686646ZM25.2228 13.8585C16.5042 14.6907 13.2949 20.7155 14.0195 29.0547C15.2704 43.4565 36.5081 43.6353 39.4781 31.6407C42.1439 20.8806 36.6004 12.7718 25.2228 13.8585Z" fill="#00B0AD"/>
</g>
<defs>
<clipPath id="clip0_51_104">
<rect width="54" height="54" fill="white"/>
</clipPath>
</defs>
</svg>
