<svg width="52" height="52" viewBox="0 0 52 52" fill="none" xmlns="http://www.w3.org/2000/svg">
<g clip-path="url(#clip0_51_107)">
<path d="M24.0537 25.3292C23.6586 19.7952 17.8199 18.8966 16.0483 13.6552C13.6487 6.54128 19.7578 -0.68129 27.0479 0.0501622C34.0179 0.748177 38.6756 8.4347 35.4609 14.8339C33.2236 19.2895 28.0377 20.1881 27.9337 25.768C27.8298 31.4566 33.2319 32.8945 35.4734 36.999C36.9123 39.6322 36.5755 44.6061 34.8455 47.047C26.6695 58.5789 11.3074 47.7534 16.5681 36.999C18.2856 33.488 22.8352 31.7743 23.7668 28.4263C23.8291 28.2006 24.0703 25.5716 24.0495 25.325L24.0537 25.3292Z" fill="#F19483"/>
<path d="M51.9959 25.8015C52.0707 34.2487 41.9153 39.7994 35.2988 34.2487C32.6289 32.0125 32.1133 29.5214 28.5368 28.372C26.8817 27.8412 24.5736 27.8955 22.9476 28.5057C18.8097 30.0606 18.3772 34.5789 13.2454 36.117C8.1427 37.6468 2.53681 34.4619 0.66541 29.4922C-2.54508 20.9781 6.52498 12.5935 14.7176 16.4681C19.7163 18.8339 20.7809 25.3292 27.6552 23.7827C32.4085 22.7126 32.7121 18.8757 36.4757 16.7524C43.167 12.9822 51.9293 18.2403 52 25.7973L51.9959 25.8015Z" fill="#F19483"/>
</g>
<defs>
<clipPath id="clip0_51_107">
<rect width="52" height="52" fill="white"/>
</clipPath>
</defs>
</svg>
