<svg width="52" height="52" viewBox="0 0 52 52" fill="none" xmlns="http://www.w3.org/2000/svg">
<path d="M25.6653 11.3019C26.7207 11.4694 26.1999 11.0115 26.354 10.4649C31.2744 -7.30805 55.3933 -0.0683622 51.6036 16.1535C50.4352 21.1553 45.998 25.3918 40.7383 25.6515C40.5704 26.7038 41.0262 26.1845 41.5778 26.3348C59.5325 31.2444 52.1073 55.6898 35.5198 51.5216C30.805 50.3361 26.5048 45.6008 26.3438 40.6809C25.2884 40.5101 25.8092 40.9747 25.6585 41.5214C20.6832 59.3866 -3.39794 52.1742 0.405438 35.8294C1.57729 30.8036 6.06938 26.7584 11.2708 26.3314C11.353 25.4226 11.2845 25.7779 10.7568 25.6583C-5.5943 21.965 -1.94512 0.184463 12.8092 -3.10844e-05C19.0111 -0.0751953 25.333 5.00523 25.6653 11.3019ZM30.805 21.2065C33.553 10.6801 17.6234 11.5104 21.5501 21.5482C11.4181 17.7046 10.6711 33.5984 21.2041 30.7763C18.3841 41.2617 34.3925 40.5101 30.4624 30.4347C40.4608 34.3979 41.4133 18.4699 30.805 21.2065Z" fill="#A6CF4F"/>
</svg>
