<svg width="35" height="35" viewBox="0 0 35 35" fill="none" xmlns="http://www.w3.org/2000/svg">
<path d="M17.5 33.1081C26.1201 33.1081 33.1081 26.1201 33.1081 17.5C33.1081 8.87983 26.1201 1.89185 17.5 1.89185C8.87983 1.89185 1.89185 8.87983 1.89185 17.5C1.89185 26.1201 8.87983 33.1081 17.5 33.1081Z" stroke="#F19483" stroke-width="2"/>
<path d="M14.4976 23.2975H11.9089V14.9611H14.4976V23.2975ZM13.2018 13.8239C12.3741 13.8239 11.7026 13.1382 11.7026 12.3105C11.7026 11.9129 11.8606 11.5315 12.1417 11.2504C12.4229 10.9692 12.8042 10.8113 13.2018 10.8113C13.5994 10.8113 13.9808 10.9692 14.2619 11.2504C14.5431 11.5315 14.7011 11.9129 14.7011 12.3105C14.7011 13.1382 14.0294 13.8239 13.2018 13.8239ZM24.1864 23.2975H21.6032V19.2394C21.6032 18.2722 21.5836 17.032 20.2573 17.032C18.9114 17.032 18.7051 18.0827 18.7051 19.1696V23.2975H16.1192V14.9611H18.602V16.0982H18.6382C18.9838 15.4432 19.828 14.752 21.0876 14.752C23.7075 14.752 24.1891 16.4773 24.1891 18.7182V23.2975H24.1864Z" fill="#F19483"/>
</svg>
