<svg width="42" height="42" viewBox="0 0 42 42" fill="none" xmlns="http://www.w3.org/2000/svg">
<path d="M7 10.5L17.6884 18.5715L17.6919 18.5744C18.8787 19.4447 19.4725 19.8802 20.1228 20.0484C20.6976 20.1971 21.3019 20.1971 21.8767 20.0484C22.5276 19.88 23.1231 19.4433 24.312 18.5715C24.312 18.5715 31.1676 13.3104 35 10.5M5.25 27.6503V14.3503C5.25 12.3902 5.25 11.4093 5.63148 10.6606C5.96703 10.0021 6.50208 9.46703 7.16064 9.13148C7.90934 8.75 8.89016 8.75 10.8503 8.75H31.1503C33.1105 8.75 34.0893 8.75 34.8379 9.13148C35.4965 9.46703 36.0333 10.0021 36.3689 10.6606C36.75 11.4086 36.75 12.3882 36.75 14.3446V27.6563C36.75 29.6126 36.75 30.5908 36.3689 31.3388C36.0333 31.9974 35.4965 32.5333 34.8379 32.8689C34.09 33.25 33.1118 33.25 31.1554 33.25H10.8446C8.88824 33.25 7.9086 33.25 7.16064 32.8689C6.50208 32.5333 5.96703 31.9974 5.63148 31.3388C5.25 30.5901 5.25 29.6105 5.25 27.6503Z" stroke="#F19483" stroke-width="2" stroke-linecap="round" stroke-linejoin="round"/>
</svg>
