<svg width="319" height="125" viewBox="0 0 319 125" fill="none" xmlns="http://www.w3.org/2000/svg">
<path d="M9.536 65.576C7.82933 65.576 6.50667 65.1067 5.568 64.168C4.672 63.2293 4.224 61.9067 4.224 60.2V24.68C4.224 22.9307 4.71467 21.608 5.696 20.712C6.67733 19.7733 8.064 19.304 9.856 19.304C11.3493 19.304 12.5227 19.6027 13.376 20.2C14.272 20.7547 15.0827 21.6933 15.808 23.016L29.568 47.72H27.328L41.024 23.016C41.792 21.6933 42.6027 20.7547 43.456 20.2C44.352 19.6027 45.5467 19.304 47.04 19.304C48.7467 19.304 50.048 19.7733 50.944 20.712C51.8827 21.608 52.352 22.9307 52.352 24.68V60.2C52.352 61.9067 51.904 63.2293 51.008 64.168C50.112 65.1067 48.7893 65.576 47.04 65.576C45.3333 65.576 44.0107 65.1067 43.072 64.168C42.176 63.2293 41.728 61.9067 41.728 60.2V38.184H43.072L32.768 56.104C32.1707 57.0427 31.5307 57.7467 30.848 58.216C30.208 58.6853 29.3333 58.92 28.224 58.92C27.1573 58.92 26.2827 58.6853 25.6 58.216C24.9173 57.7467 24.2987 57.0427 23.744 56.104L13.376 38.12H14.848V60.2C14.848 61.9067 14.4 63.2293 13.504 64.168C12.608 65.1067 11.2853 65.576 9.536 65.576ZM90.7385 65.704C86.1732 65.704 82.1625 64.744 78.7065 62.824C75.2505 60.8613 72.5625 58.1307 70.6425 54.632C68.7652 51.1333 67.8265 47.0587 67.8265 42.408C67.8265 38.9093 68.3598 35.7307 69.4265 32.872C70.5358 30.0133 72.0932 27.56 74.0985 25.512C76.1465 23.464 78.5785 21.9067 81.3945 20.84C84.2105 19.7307 87.3252 19.176 90.7385 19.176C95.3038 19.176 99.2932 20.136 102.707 22.056C106.163 23.976 108.851 26.6853 110.771 30.184C112.691 33.64 113.651 37.7147 113.651 42.408C113.651 45.9067 113.096 49.0853 111.987 51.944C110.92 54.8027 109.363 57.2773 107.315 59.368C105.309 61.416 102.899 62.9947 100.083 64.104C97.2665 65.1707 94.1518 65.704 90.7385 65.704ZM90.7385 55.848C92.9998 55.848 94.9198 55.3147 96.4985 54.248C98.0772 53.1813 99.2932 51.6453 100.146 49.64C101 47.6347 101.427 45.224 101.427 42.408C101.427 38.184 100.488 34.8987 98.6105 32.552C96.7332 30.2053 94.1092 29.032 90.7385 29.032C88.5198 29.032 86.5998 29.5653 84.9785 30.632C83.3998 31.656 82.1838 33.1707 81.3305 35.176C80.4772 37.1387 80.0505 39.5493 80.0505 42.408C80.0505 46.632 80.9892 49.9387 82.8665 52.328C84.7438 54.6747 87.3678 55.848 90.7385 55.848ZM134.427 65.576C132.635 65.576 131.27 65.1067 130.331 64.168C129.393 63.2293 128.923 61.8427 128.923 60.008V25.128C128.923 23.2507 129.393 21.8213 130.331 20.84C131.27 19.816 132.507 19.304 134.043 19.304C135.409 19.304 136.476 19.56 137.243 20.072C138.012 20.584 138.865 21.4373 139.804 22.632L160.091 47.976H158.299V24.808C158.299 23.016 158.748 21.6507 159.644 20.712C160.582 19.7733 161.948 19.304 163.74 19.304C165.532 19.304 166.876 19.7733 167.771 20.712C168.71 21.6507 169.18 23.016 169.18 24.808V60.264C169.18 61.8853 168.753 63.1867 167.9 64.168C167.046 65.1067 165.894 65.576 164.444 65.576C162.993 65.576 161.841 65.32 160.987 64.808C160.177 64.2533 159.302 63.4 158.364 62.248L138.076 36.84H139.868V60.008C139.868 61.8427 139.398 63.2293 138.46 64.168C137.563 65.1067 136.219 65.576 134.427 65.576ZM191.631 65.576C189.754 65.576 188.303 65.064 187.279 64.04C186.255 62.9733 185.743 61.48 185.743 59.56V25.32C185.743 23.3573 186.255 21.864 187.279 20.84C188.303 19.816 189.754 19.304 191.631 19.304C193.551 19.304 195.002 19.816 195.983 20.84C197.007 21.864 197.519 23.3573 197.519 25.32V59.56C197.519 61.48 197.029 62.9733 196.047 64.04C195.066 65.064 193.594 65.576 191.631 65.576ZM236.785 65.704C231.793 65.704 227.505 64.744 223.921 62.824C220.337 60.904 217.585 58.1947 215.665 54.696C213.788 51.1973 212.849 47.1013 212.849 42.408C212.849 38.9093 213.382 35.7307 214.449 32.872C215.558 30.0133 217.137 27.56 219.185 25.512C221.276 23.464 223.793 21.9067 226.737 20.84C229.724 19.7307 233.073 19.176 236.785 19.176C238.748 19.176 240.774 19.4107 242.865 19.88C244.998 20.3067 246.876 20.968 248.497 21.864C249.692 22.504 250.524 23.3147 250.993 24.296C251.462 25.2773 251.612 26.28 251.441 27.304C251.313 28.328 250.95 29.2453 250.353 30.056C249.756 30.8667 248.988 31.4213 248.049 31.72C247.11 31.976 246.086 31.8267 244.977 31.272C243.697 30.6747 242.417 30.2267 241.137 29.928C239.9 29.5867 238.598 29.416 237.233 29.416C234.588 29.416 232.369 29.928 230.577 30.952C228.828 31.9333 227.505 33.384 226.609 35.304C225.713 37.224 225.265 39.592 225.265 42.408C225.265 45.224 225.713 47.6133 226.609 49.576C227.505 51.496 228.828 52.968 230.577 53.992C232.369 54.9733 234.588 55.464 237.233 55.464C238.342 55.464 239.537 55.336 240.817 55.08C242.097 54.7813 243.356 54.3333 244.593 53.736C245.873 53.1813 247.004 53.032 247.985 53.288C249.009 53.544 249.82 54.056 250.417 54.824C251.057 55.592 251.462 56.488 251.633 57.512C251.804 58.4933 251.654 59.4747 251.185 60.456C250.758 61.4373 249.99 62.2267 248.881 62.824C247.388 63.72 245.532 64.424 243.313 64.936C241.137 65.448 238.961 65.704 236.785 65.704ZM267.746 65.576C266.423 65.576 265.314 65.2773 264.418 64.68C263.522 64.04 262.967 63.1867 262.754 62.12C262.54 61.0107 262.732 59.7733 263.33 58.408L279.266 24.104C280.034 22.44 280.972 21.224 282.082 20.456C283.234 19.688 284.535 19.304 285.986 19.304C287.436 19.304 288.695 19.688 289.762 20.456C290.871 21.224 291.831 22.44 292.642 24.104L308.578 58.408C309.26 59.7733 309.495 61.0107 309.282 62.12C309.111 63.2293 308.578 64.0827 307.682 64.68C306.828 65.2773 305.762 65.576 304.482 65.576C302.775 65.576 301.452 65.192 300.514 64.424C299.618 63.656 298.807 62.4187 298.082 60.712L294.626 52.584L299.106 55.848H272.738L277.282 52.584L273.826 60.712C273.058 62.4187 272.268 63.656 271.458 64.424C270.647 65.192 269.41 65.576 267.746 65.576ZM285.858 32.168L278.434 49.896L276.642 46.824H295.266L293.474 49.896L285.986 32.168H285.858Z" fill="#15272F"/>
<path d="M76.258 110.378C75.138 110.378 74.27 110.07 73.654 109.454C73.066 108.838 72.772 107.97 72.772 106.85V83.54C72.772 82.392 73.094 81.524 73.738 80.936C74.382 80.32 75.292 80.012 76.468 80.012C77.448 80.012 78.218 80.208 78.778 80.6C79.366 80.964 79.898 81.58 80.374 82.448L89.404 98.66H87.934L96.922 82.448C97.426 81.58 97.958 80.964 98.518 80.6C99.106 80.208 99.89 80.012 100.87 80.012C101.99 80.012 102.844 80.32 103.432 80.936C104.048 81.524 104.356 82.392 104.356 83.54V106.85C104.356 107.97 104.062 108.838 103.474 109.454C102.886 110.07 102.018 110.378 100.87 110.378C99.75 110.378 98.882 110.07 98.266 109.454C97.678 108.838 97.384 107.97 97.384 106.85V92.402H98.266L91.504 104.162C91.112 104.778 90.692 105.24 90.244 105.548C89.824 105.856 89.25 106.01 88.522 106.01C87.822 106.01 87.248 105.856 86.8 105.548C86.352 105.24 85.946 104.778 85.582 104.162L78.778 92.36H79.744V106.85C79.744 107.97 79.45 108.838 78.862 109.454C78.274 110.07 77.406 110.378 76.258 110.378ZM129.547 110.462C126.551 110.462 123.919 109.832 121.651 108.572C119.383 107.284 117.619 105.492 116.359 103.196C115.127 100.9 114.511 98.226 114.511 95.174C114.511 92.878 114.861 90.792 115.561 88.916C116.289 87.04 117.311 85.43 118.627 84.086C119.971 82.742 121.567 81.72 123.415 81.02C125.263 80.292 127.307 79.928 129.547 79.928C132.543 79.928 135.161 80.558 137.401 81.818C139.669 83.078 141.433 84.856 142.693 87.152C143.953 89.42 144.583 92.094 144.583 95.174C144.583 97.47 144.219 99.556 143.491 101.432C142.791 103.308 141.769 104.932 140.425 106.304C139.109 107.648 137.527 108.684 135.679 109.412C133.831 110.112 131.787 110.462 129.547 110.462ZM129.547 103.994C131.031 103.994 132.291 103.644 133.327 102.944C134.363 102.244 135.161 101.236 135.721 99.92C136.281 98.604 136.561 97.022 136.561 95.174C136.561 92.402 135.945 90.246 134.713 88.706C133.481 87.166 131.759 86.396 129.547 86.396C128.091 86.396 126.831 86.746 125.767 87.446C124.731 88.118 123.933 89.112 123.373 90.428C122.813 91.716 122.533 93.298 122.533 95.174C122.533 97.946 123.149 100.116 124.381 101.684C125.613 103.224 127.335 103.994 129.547 103.994ZM158.47 110.378C157.238 110.378 156.286 110.042 155.614 109.37C154.942 108.67 154.606 107.704 154.606 106.472V84.296C154.606 83.036 154.942 82.07 155.614 81.398C156.314 80.726 157.28 80.39 158.512 80.39H168.844C172.204 80.39 174.794 81.216 176.614 82.868C178.462 84.492 179.386 86.76 179.386 89.672C179.386 91.548 178.966 93.186 178.126 94.586C177.314 95.958 176.124 97.022 174.556 97.778C173.016 98.506 171.112 98.87 168.844 98.87L169.18 98.114H171.196C172.4 98.114 173.464 98.408 174.388 98.996C175.312 99.556 176.082 100.424 176.698 101.6L178.798 105.38C179.246 106.192 179.456 106.99 179.428 107.774C179.4 108.53 179.092 109.16 178.504 109.664C177.944 110.14 177.118 110.378 176.026 110.378C174.934 110.378 174.038 110.154 173.338 109.706C172.666 109.258 172.064 108.558 171.532 107.606L167.71 100.592C167.374 99.976 166.94 99.556 166.408 99.332C165.904 99.08 165.316 98.954 164.644 98.954H162.334V106.472C162.334 107.704 162.012 108.67 161.368 109.37C160.724 110.042 159.758 110.378 158.47 110.378ZM162.334 93.494H167.458C168.942 93.494 170.076 93.2 170.86 92.612C171.644 92.024 172.036 91.114 172.036 89.882C172.036 88.706 171.644 87.824 170.86 87.236C170.076 86.62 168.942 86.312 167.458 86.312H162.334V93.494ZM190.532 110.378C189.664 110.378 188.936 110.182 188.348 109.79C187.76 109.37 187.396 108.81 187.256 108.11C187.116 107.382 187.242 106.57 187.634 105.674L198.092 83.162C198.596 82.07 199.212 81.272 199.94 80.768C200.696 80.264 201.55 80.012 202.502 80.012C203.454 80.012 204.28 80.264 204.98 80.768C205.708 81.272 206.338 82.07 206.87 83.162L217.328 105.674C217.776 106.57 217.93 107.382 217.79 108.11C217.678 108.838 217.328 109.398 216.74 109.79C216.18 110.182 215.48 110.378 214.64 110.378C213.52 110.378 212.652 110.126 212.036 109.622C211.448 109.118 210.916 108.306 210.44 107.186L208.172 101.852L211.112 103.994H193.808L196.79 101.852L194.522 107.186C194.018 108.306 193.5 109.118 192.968 109.622C192.436 110.126 191.624 110.378 190.532 110.378ZM202.418 88.454L197.546 100.088L196.37 98.072H208.592L207.416 100.088L202.502 88.454H202.418ZM230.545 110C229.313 110 228.347 109.664 227.647 108.992C226.975 108.292 226.639 107.326 226.639 106.094V84.254C226.639 82.994 226.975 82.028 227.647 81.356C228.319 80.684 229.271 80.348 230.503 80.348C231.763 80.348 232.715 80.684 233.359 81.356C234.031 82.028 234.367 82.994 234.367 84.254V103.574H244.615C245.679 103.574 246.491 103.854 247.051 104.414C247.639 104.946 247.933 105.73 247.933 106.766C247.933 107.802 247.639 108.6 247.051 109.16C246.491 109.72 245.679 110 244.615 110H230.545ZM260.7 110C259.384 110 258.376 109.664 257.676 108.992C257.004 108.292 256.668 107.298 256.668 106.01V84.38C256.668 83.092 257.004 82.112 257.676 81.44C258.376 80.74 259.384 80.39 260.7 80.39H274.938C275.946 80.39 276.702 80.642 277.206 81.146C277.71 81.65 277.962 82.378 277.962 83.33C277.962 84.31 277.71 85.066 277.206 85.598C276.702 86.102 275.946 86.354 274.938 86.354H264.06V91.982H274.014C274.994 91.982 275.736 92.234 276.24 92.738C276.772 93.242 277.038 93.984 277.038 94.964C277.038 95.944 276.772 96.686 276.24 97.19C275.736 97.694 274.994 97.946 274.014 97.946H264.06V104.036H274.938C275.946 104.036 276.702 104.302 277.206 104.834C277.71 105.338 277.962 106.066 277.962 107.018C277.962 107.998 277.71 108.74 277.206 109.244C276.702 109.748 275.946 110 274.938 110H260.7ZM298.52 110.462C297.4 110.462 296.224 110.378 294.992 110.21C293.788 110.07 292.64 109.846 291.548 109.538C290.456 109.23 289.476 108.866 288.608 108.446C287.852 108.082 287.32 107.606 287.012 107.018C286.704 106.402 286.592 105.758 286.676 105.086C286.76 104.414 286.998 103.826 287.39 103.322C287.782 102.79 288.3 102.44 288.944 102.272C289.588 102.076 290.316 102.16 291.128 102.524C292.192 103.028 293.396 103.42 294.74 103.7C296.084 103.98 297.344 104.12 298.52 104.12C300.368 104.12 301.656 103.882 302.384 103.406C303.14 102.902 303.518 102.286 303.518 101.558C303.518 100.914 303.252 100.396 302.72 100.004C302.216 99.612 301.306 99.276 299.99 98.996L295.076 97.946C292.388 97.386 290.386 96.406 289.07 95.006C287.754 93.606 287.096 91.8 287.096 89.588C287.096 88.132 287.39 86.816 287.978 85.64C288.594 84.436 289.448 83.414 290.54 82.574C291.66 81.734 292.976 81.09 294.488 80.642C296.028 80.166 297.736 79.928 299.612 79.928C301.068 79.928 302.538 80.096 304.022 80.432C305.534 80.74 306.836 81.216 307.928 81.86C308.572 82.196 309.034 82.658 309.314 83.246C309.594 83.834 309.706 84.45 309.65 85.094C309.594 85.71 309.37 86.256 308.978 86.732C308.614 87.208 308.11 87.53 307.466 87.698C306.85 87.838 306.108 87.726 305.24 87.362C304.428 86.998 303.504 86.732 302.468 86.564C301.46 86.368 300.48 86.27 299.528 86.27C298.492 86.27 297.61 86.396 296.882 86.648C296.154 86.872 295.594 87.208 295.202 87.656C294.838 88.104 294.656 88.622 294.656 89.21C294.656 89.798 294.894 90.302 295.37 90.722C295.874 91.114 296.784 91.45 298.1 91.73L302.972 92.78C305.688 93.368 307.718 94.334 309.062 95.678C310.406 97.022 311.078 98.772 311.078 100.928C311.078 102.384 310.784 103.7 310.196 104.876C309.608 106.052 308.768 107.06 307.676 107.9C306.584 108.712 305.268 109.342 303.728 109.79C302.188 110.238 300.452 110.462 298.52 110.462Z" fill="#15272F"/>
</svg>
